<svg width="713" height="489" viewBox="0 0 713 489" fill="none" xmlns="http://www.w3.org/2000/svg">
<mask id="path-1-outside-1_101_264" maskUnits="userSpaceOnUse" x="0" y="0" width="713" height="489" fill="black">
<rect fill="white" width="713" height="489"/>
<path d="M666.812 284.034C666.812 331.975 627.926 370.838 579.958 370.838C531.989 370.838 493.103 331.975 493.103 284.034C493.103 236.094 531.989 197.231 579.958 197.231C627.926 197.231 666.812 236.094 666.812 284.034Z"/>
<path d="M260.026 197.255C260.026 245.195 221.14 284.058 173.171 284.058C125.203 284.058 86.3166 245.195 86.3166 197.255C86.3166 149.314 125.203 110.451 173.171 110.451C221.14 110.451 260.026 149.314 260.026 197.255Z"/>
<path d="M445.828 254.661C445.828 287.885 418.879 314.819 385.635 314.819C352.391 314.819 325.441 287.885 325.441 254.661C325.441 221.437 352.391 194.503 385.635 194.503C418.879 194.503 445.828 221.437 445.828 254.661Z"/>
<path d="M401.302 82.1581C401.302 115.382 374.352 142.316 341.108 142.316C307.864 142.316 280.915 115.382 280.915 82.1581C280.915 48.9337 307.864 22 341.108 22C374.352 22 401.302 48.9337 401.302 82.1581Z"/>
<path d="M531.034 99.7394C531.034 132.964 504.084 159.897 470.84 159.897C437.596 159.897 410.647 132.964 410.647 99.7394C410.647 66.515 437.596 39.5813 470.84 39.5813C504.084 39.5813 531.034 66.515 531.034 99.7394Z"/>
<path d="M268.271 369.479C268.271 402.703 241.321 429.637 208.077 429.637C174.833 429.637 147.884 402.703 147.884 369.479C147.884 336.254 174.833 309.32 208.077 309.32C241.321 309.32 268.271 336.254 268.271 369.479Z"/>
<path d="M350.178 389.532C350.178 410.165 333.443 426.891 312.798 426.891C292.153 426.891 275.418 410.165 275.418 389.532C275.418 368.9 292.153 352.174 312.798 352.174C333.443 352.174 350.178 368.9 350.178 389.532Z"/>
<path d="M495.302 369.759C495.302 390.392 478.566 407.118 457.921 407.118C437.277 407.118 420.541 390.392 420.541 369.759C420.541 349.127 437.277 332.401 457.921 332.401C478.566 332.401 495.302 349.127 495.302 369.759Z"/>
<path d="M691 429.642C691 450.274 674.264 467 653.62 467C632.975 467 616.239 450.274 616.239 429.642C616.239 409.009 632.975 392.283 653.62 392.283C674.264 392.283 691 409.009 691 429.642Z"/>
<path d="M296.307 288.448C296.307 308.17 280.309 324.158 260.576 324.158C240.842 324.158 224.844 308.17 224.844 288.448C224.844 268.726 240.842 252.738 260.576 252.738C280.309 252.738 296.307 268.726 296.307 288.448Z"/>
<path d="M157.504 356.296C157.504 371.315 145.322 383.49 130.294 383.49C115.265 383.49 103.083 371.315 103.083 356.296C103.083 341.276 115.265 329.101 130.294 329.101C145.322 329.101 157.504 341.276 157.504 356.296Z"/>
<path d="M325.442 214.281C325.442 225.204 316.581 234.059 305.652 234.059C294.722 234.059 285.862 225.204 285.862 214.281C285.862 203.358 294.722 194.503 305.652 194.503C316.581 194.503 325.442 203.358 325.442 214.281Z"/>
<path d="M417.244 159.893C417.244 170.816 408.384 179.671 397.454 179.671C386.525 179.671 377.665 170.816 377.665 159.893C377.665 148.969 386.525 140.115 397.454 140.115C408.384 140.115 417.244 148.969 417.244 159.893Z"/>
<path d="M483.208 289.553C483.208 300.476 474.348 309.331 463.419 309.331C452.489 309.331 443.629 300.476 443.629 289.553C443.629 278.63 452.489 269.775 463.419 269.775C474.348 269.775 483.208 278.63 483.208 289.553Z"/>
<path d="M352.377 324.16C352.377 335.083 343.517 343.938 332.588 343.938C321.658 343.938 312.798 335.083 312.798 324.16C312.798 313.237 321.658 304.382 332.588 304.382C343.517 304.382 352.377 313.237 352.377 324.16Z"/>
<path d="M417.244 369.208C417.244 380.131 408.384 388.986 397.454 388.986C386.525 388.986 377.665 380.131 377.665 369.208C377.665 358.285 386.525 349.43 397.454 349.43C408.384 349.43 417.244 358.285 417.244 369.208Z"/>
<path d="M150.083 406.025C150.083 416.949 141.223 425.803 130.294 425.803C119.364 425.803 110.504 416.949 110.504 406.025C110.504 395.102 119.364 386.247 130.294 386.247C141.223 386.247 150.083 395.102 150.083 406.025Z"/>
<path d="M150.083 309.323C150.083 320.246 141.223 329.101 130.294 329.101C119.364 329.101 110.504 320.246 110.504 309.323C110.504 298.4 119.364 289.545 130.294 289.545C141.223 289.545 150.083 298.4 150.083 309.323Z"/>
<path d="M564.566 397.216C564.566 408.139 555.706 416.994 544.776 416.994C533.847 416.994 524.986 408.139 524.986 397.216C524.986 386.293 533.847 377.438 544.776 377.438C555.706 377.438 564.566 386.293 564.566 397.216Z"/>
<path d="M612.94 421.934C612.94 428.913 607.28 434.57 600.297 434.57C593.314 434.57 587.654 428.913 587.654 421.934C587.654 414.956 593.314 409.298 600.297 409.298C607.28 409.298 612.94 414.956 612.94 421.934Z"/>
<path d="M390.307 406.003C390.307 412.981 384.646 418.639 377.663 418.639C370.681 418.639 365.02 412.981 365.02 406.003C365.02 399.024 370.681 393.367 377.663 393.367C384.646 393.367 390.307 399.024 390.307 406.003Z"/>
<path d="M103.357 401.638C103.357 408.617 97.6969 414.274 90.7141 414.274C83.7314 414.274 78.0707 408.617 78.0707 401.638C78.0707 394.66 83.7314 389.002 90.7141 389.002C97.6969 389.002 103.357 394.66 103.357 401.638Z"/>
<path d="M506.846 194.507C506.846 201.485 501.185 207.143 494.202 207.143C487.22 207.143 481.559 201.485 481.559 194.507C481.559 187.528 487.22 181.871 494.202 181.871C501.185 181.871 506.846 187.528 506.846 194.507Z"/>
<path d="M428.236 34.6359C428.236 41.6146 422.576 47.2719 415.593 47.2719C408.61 47.2719 402.95 41.6146 402.95 34.6359C402.95 27.6573 408.61 22 415.593 22C422.576 22 428.236 27.6573 428.236 34.6359Z"/>
<path d="M681.655 369.758C681.655 380.681 672.795 389.536 661.865 389.536C650.936 389.536 642.076 380.681 642.076 369.758C642.076 358.834 650.936 349.98 661.865 349.98C672.795 349.98 681.655 358.834 681.655 369.758Z"/>
<path d="M602.496 149.456C602.496 169.178 586.498 185.166 566.765 185.166C547.031 185.166 531.033 169.178 531.033 149.456C531.033 129.733 547.031 113.745 566.765 113.745C586.498 113.745 602.496 129.733 602.496 149.456Z"/>
<path d="M279.265 90.6678C279.265 110.39 263.268 126.378 243.534 126.378C223.8 126.378 207.803 110.39 207.803 90.6678C207.803 70.9456 223.8 54.9576 243.534 54.9576C263.268 54.9576 279.265 70.9456 279.265 90.6678Z"/>
<path d="M103.358 263.726C103.358 283.448 87.3605 299.436 67.6266 299.436C47.8928 299.436 31.8953 283.448 31.8953 263.726C31.8953 244.004 47.8928 228.016 67.6266 228.016C87.3605 228.016 103.358 244.004 103.358 263.726Z"/>
<path d="M96.7609 346.679C96.7609 367.311 80.0251 384.037 59.3804 384.037C38.7358 384.037 22 367.311 22 346.679C22 326.046 38.7358 309.32 59.3804 309.32C80.0251 309.32 96.7609 326.046 96.7609 346.679Z"/>
<path d="M463.419 197.231C463.419 204.21 457.758 209.867 450.775 209.867C443.793 209.867 438.132 204.21 438.132 197.231C438.132 190.252 443.793 184.595 450.775 184.595C457.758 184.595 463.419 190.252 463.419 197.231Z"/>
<path d="M494.202 236.975C494.202 247.898 485.342 256.753 474.413 256.753C463.483 256.753 454.623 247.898 454.623 236.975C454.623 226.052 463.483 217.197 474.413 217.197C485.342 217.197 494.202 226.052 494.202 236.975Z"/>
<path d="M365.021 171.39C365.021 182.313 356.161 191.168 345.231 191.168C334.302 191.168 325.442 182.313 325.442 171.39C325.442 160.466 334.302 151.612 345.231 151.612C356.161 151.612 365.021 160.466 365.021 171.39Z"/>
<path d="M307.85 159.897C307.85 170.821 298.99 179.675 288.06 179.675C277.131 179.675 268.271 170.821 268.271 159.897C268.271 148.974 277.131 140.119 288.06 140.119C298.99 140.119 307.85 148.974 307.85 159.897Z"/>
<path d="M625.584 389.536C625.584 396.514 619.923 402.172 612.94 402.172C605.958 402.172 600.297 396.514 600.297 389.536C600.297 382.557 605.958 376.9 612.94 376.9C619.923 376.9 625.584 382.557 625.584 389.536Z"/>
</mask>
<path d="M666.812 284.034C666.812 331.975 627.926 370.838 579.958 370.838C531.989 370.838 493.103 331.975 493.103 284.034C493.103 236.094 531.989 197.231 579.958 197.231C627.926 197.231 666.812 236.094 666.812 284.034Z" fill="white"/>
<path d="M260.026 197.255C260.026 245.195 221.14 284.058 173.171 284.058C125.203 284.058 86.3166 245.195 86.3166 197.255C86.3166 149.314 125.203 110.451 173.171 110.451C221.14 110.451 260.026 149.314 260.026 197.255Z" fill="white"/>
<path d="M445.828 254.661C445.828 287.885 418.879 314.819 385.635 314.819C352.391 314.819 325.441 287.885 325.441 254.661C325.441 221.437 352.391 194.503 385.635 194.503C418.879 194.503 445.828 221.437 445.828 254.661Z" fill="white"/>
<path d="M401.302 82.1581C401.302 115.382 374.352 142.316 341.108 142.316C307.864 142.316 280.915 115.382 280.915 82.1581C280.915 48.9337 307.864 22 341.108 22C374.352 22 401.302 48.9337 401.302 82.1581Z" fill="white"/>
<path d="M531.034 99.7394C531.034 132.964 504.084 159.897 470.84 159.897C437.596 159.897 410.647 132.964 410.647 99.7394C410.647 66.515 437.596 39.5813 470.84 39.5813C504.084 39.5813 531.034 66.515 531.034 99.7394Z" fill="white"/>
<path d="M268.271 369.479C268.271 402.703 241.321 429.637 208.077 429.637C174.833 429.637 147.884 402.703 147.884 369.479C147.884 336.254 174.833 309.32 208.077 309.32C241.321 309.32 268.271 336.254 268.271 369.479Z" fill="white"/>
<path d="M350.178 389.532C350.178 410.165 333.443 426.891 312.798 426.891C292.153 426.891 275.418 410.165 275.418 389.532C275.418 368.9 292.153 352.174 312.798 352.174C333.443 352.174 350.178 368.9 350.178 389.532Z" fill="white"/>
<path d="M495.302 369.759C495.302 390.392 478.566 407.118 457.921 407.118C437.277 407.118 420.541 390.392 420.541 369.759C420.541 349.127 437.277 332.401 457.921 332.401C478.566 332.401 495.302 349.127 495.302 369.759Z" fill="white"/>
<path d="M691 429.642C691 450.274 674.264 467 653.62 467C632.975 467 616.239 450.274 616.239 429.642C616.239 409.009 632.975 392.283 653.62 392.283C674.264 392.283 691 409.009 691 429.642Z" fill="white"/>
<path d="M296.307 288.448C296.307 308.17 280.309 324.158 260.576 324.158C240.842 324.158 224.844 308.17 224.844 288.448C224.844 268.726 240.842 252.738 260.576 252.738C280.309 252.738 296.307 268.726 296.307 288.448Z" fill="white"/>
<path d="M157.504 356.296C157.504 371.315 145.322 383.49 130.294 383.49C115.265 383.49 103.083 371.315 103.083 356.296C103.083 341.276 115.265 329.101 130.294 329.101C145.322 329.101 157.504 341.276 157.504 356.296Z" fill="white"/>
<path d="M325.442 214.281C325.442 225.204 316.581 234.059 305.652 234.059C294.722 234.059 285.862 225.204 285.862 214.281C285.862 203.358 294.722 194.503 305.652 194.503C316.581 194.503 325.442 203.358 325.442 214.281Z" fill="white"/>
<path d="M417.244 159.893C417.244 170.816 408.384 179.671 397.454 179.671C386.525 179.671 377.665 170.816 377.665 159.893C377.665 148.969 386.525 140.115 397.454 140.115C408.384 140.115 417.244 148.969 417.244 159.893Z" fill="white"/>
<path d="M483.208 289.553C483.208 300.476 474.348 309.331 463.419 309.331C452.489 309.331 443.629 300.476 443.629 289.553C443.629 278.63 452.489 269.775 463.419 269.775C474.348 269.775 483.208 278.63 483.208 289.553Z" fill="white"/>
<path d="M352.377 324.16C352.377 335.083 343.517 343.938 332.588 343.938C321.658 343.938 312.798 335.083 312.798 324.16C312.798 313.237 321.658 304.382 332.588 304.382C343.517 304.382 352.377 313.237 352.377 324.16Z" fill="white"/>
<path d="M417.244 369.208C417.244 380.131 408.384 388.986 397.454 388.986C386.525 388.986 377.665 380.131 377.665 369.208C377.665 358.285 386.525 349.43 397.454 349.43C408.384 349.43 417.244 358.285 417.244 369.208Z" fill="white"/>
<path d="M150.083 406.025C150.083 416.949 141.223 425.803 130.294 425.803C119.364 425.803 110.504 416.949 110.504 406.025C110.504 395.102 119.364 386.247 130.294 386.247C141.223 386.247 150.083 395.102 150.083 406.025Z" fill="white"/>
<path d="M150.083 309.323C150.083 320.246 141.223 329.101 130.294 329.101C119.364 329.101 110.504 320.246 110.504 309.323C110.504 298.4 119.364 289.545 130.294 289.545C141.223 289.545 150.083 298.4 150.083 309.323Z" fill="white"/>
<path d="M564.566 397.216C564.566 408.139 555.706 416.994 544.776 416.994C533.847 416.994 524.986 408.139 524.986 397.216C524.986 386.293 533.847 377.438 544.776 377.438C555.706 377.438 564.566 386.293 564.566 397.216Z" fill="white"/>
<path d="M612.94 421.934C612.94 428.913 607.28 434.57 600.297 434.57C593.314 434.57 587.654 428.913 587.654 421.934C587.654 414.956 593.314 409.298 600.297 409.298C607.28 409.298 612.94 414.956 612.94 421.934Z" fill="white"/>
<path d="M390.307 406.003C390.307 412.981 384.646 418.639 377.663 418.639C370.681 418.639 365.02 412.981 365.02 406.003C365.02 399.024 370.681 393.367 377.663 393.367C384.646 393.367 390.307 399.024 390.307 406.003Z" fill="white"/>
<path d="M103.357 401.638C103.357 408.617 97.6969 414.274 90.7141 414.274C83.7314 414.274 78.0707 408.617 78.0707 401.638C78.0707 394.66 83.7314 389.002 90.7141 389.002C97.6969 389.002 103.357 394.66 103.357 401.638Z" fill="white"/>
<path d="M506.846 194.507C506.846 201.485 501.185 207.143 494.202 207.143C487.22 207.143 481.559 201.485 481.559 194.507C481.559 187.528 487.22 181.871 494.202 181.871C501.185 181.871 506.846 187.528 506.846 194.507Z" fill="white"/>
<path d="M428.236 34.6359C428.236 41.6146 422.576 47.2719 415.593 47.2719C408.61 47.2719 402.95 41.6146 402.95 34.6359C402.95 27.6573 408.61 22 415.593 22C422.576 22 428.236 27.6573 428.236 34.6359Z" fill="white"/>
<path d="M681.655 369.758C681.655 380.681 672.795 389.536 661.865 389.536C650.936 389.536 642.076 380.681 642.076 369.758C642.076 358.834 650.936 349.98 661.865 349.98C672.795 349.98 681.655 358.834 681.655 369.758Z" fill="white"/>
<path d="M602.496 149.456C602.496 169.178 586.498 185.166 566.765 185.166C547.031 185.166 531.033 169.178 531.033 149.456C531.033 129.733 547.031 113.745 566.765 113.745C586.498 113.745 602.496 129.733 602.496 149.456Z" fill="white"/>
<path d="M279.265 90.6678C279.265 110.39 263.268 126.378 243.534 126.378C223.8 126.378 207.803 110.39 207.803 90.6678C207.803 70.9456 223.8 54.9576 243.534 54.9576C263.268 54.9576 279.265 70.9456 279.265 90.6678Z" fill="white"/>
<path d="M103.358 263.726C103.358 283.448 87.3605 299.436 67.6266 299.436C47.8928 299.436 31.8953 283.448 31.8953 263.726C31.8953 244.004 47.8928 228.016 67.6266 228.016C87.3605 228.016 103.358 244.004 103.358 263.726Z" fill="white"/>
<path d="M96.7609 346.679C96.7609 367.311 80.0251 384.037 59.3804 384.037C38.7358 384.037 22 367.311 22 346.679C22 326.046 38.7358 309.32 59.3804 309.32C80.0251 309.32 96.7609 326.046 96.7609 346.679Z" fill="white"/>
<path d="M463.419 197.231C463.419 204.21 457.758 209.867 450.775 209.867C443.793 209.867 438.132 204.21 438.132 197.231C438.132 190.252 443.793 184.595 450.775 184.595C457.758 184.595 463.419 190.252 463.419 197.231Z" fill="white"/>
<path d="M494.202 236.975C494.202 247.898 485.342 256.753 474.413 256.753C463.483 256.753 454.623 247.898 454.623 236.975C454.623 226.052 463.483 217.197 474.413 217.197C485.342 217.197 494.202 226.052 494.202 236.975Z" fill="white"/>
<path d="M365.021 171.39C365.021 182.313 356.161 191.168 345.231 191.168C334.302 191.168 325.442 182.313 325.442 171.39C325.442 160.466 334.302 151.612 345.231 151.612C356.161 151.612 365.021 160.466 365.021 171.39Z" fill="white"/>
<path d="M307.85 159.897C307.85 170.821 298.99 179.675 288.06 179.675C277.131 179.675 268.271 170.821 268.271 159.897C268.271 148.974 277.131 140.119 288.06 140.119C298.99 140.119 307.85 148.974 307.85 159.897Z" fill="white"/>
<path d="M625.584 389.536C625.584 396.514 619.923 402.172 612.94 402.172C605.958 402.172 600.297 396.514 600.297 389.536C600.297 382.557 605.958 376.9 612.94 376.9C619.923 376.9 625.584 382.557 625.584 389.536Z" fill="white"/>
<path d="M644.812 284.034C644.812 319.812 615.788 348.838 579.958 348.838V392.838C640.064 392.838 688.812 344.137 688.812 284.034H644.812ZM579.958 348.838C544.127 348.838 515.103 319.812 515.103 284.034H471.103C471.103 344.137 519.851 392.838 579.958 392.838V348.838ZM515.103 284.034C515.103 248.257 544.127 219.231 579.958 219.231V175.231C519.851 175.231 471.103 223.932 471.103 284.034H515.103ZM579.958 219.231C615.788 219.231 644.812 248.257 644.812 284.034H688.812C688.812 223.932 640.064 175.231 579.958 175.231V219.231ZM238.026 197.255C238.026 233.032 209.001 262.058 173.171 262.058V306.058C233.278 306.058 282.026 257.357 282.026 197.255H238.026ZM173.171 262.058C137.341 262.058 108.317 233.032 108.317 197.255H64.3166C64.3166 257.357 113.065 306.058 173.171 306.058V262.058ZM108.317 197.255C108.317 161.477 137.341 132.451 173.171 132.451V88.4511C113.065 88.4511 64.3166 137.152 64.3166 197.255H108.317ZM173.171 132.451C209.001 132.451 238.026 161.477 238.026 197.255H282.026C282.026 137.152 233.278 88.4511 173.171 88.4511V132.451ZM423.828 254.661C423.828 275.723 406.741 292.819 385.635 292.819V336.819C431.017 336.819 467.828 300.048 467.828 254.661H423.828ZM385.635 292.819C364.529 292.819 347.441 275.723 347.441 254.661H303.441C303.441 300.048 340.253 336.819 385.635 336.819V292.819ZM347.441 254.661C347.441 233.599 364.529 216.503 385.635 216.503V172.503C340.253 172.503 303.441 209.274 303.441 254.661H347.441ZM385.635 216.503C406.741 216.503 423.828 233.599 423.828 254.661H467.828C467.828 209.274 431.017 172.503 385.635 172.503V216.503ZM379.302 82.1581C379.302 103.22 362.214 120.316 341.108 120.316V164.316C386.49 164.316 423.302 127.545 423.302 82.1581H379.302ZM341.108 120.316C320.002 120.316 302.915 103.22 302.915 82.1581H258.915C258.915 127.545 295.726 164.316 341.108 164.316V120.316ZM302.915 82.1581C302.915 61.0962 320.002 44 341.108 44V0C295.726 0 258.915 36.7712 258.915 82.1581H302.915ZM341.108 44C362.214 44 379.302 61.0962 379.302 82.1581H423.302C423.302 36.7712 386.49 0 341.108 0V44ZM509.034 99.7394C509.034 120.801 491.946 137.897 470.84 137.897V181.897C516.222 181.897 553.034 145.126 553.034 99.7394H509.034ZM470.84 137.897C449.734 137.897 432.647 120.801 432.647 99.7394H388.647C388.647 145.126 425.458 181.897 470.84 181.897V137.897ZM432.647 99.7394C432.647 78.6775 449.734 61.5813 470.84 61.5813V17.5813C425.458 17.5813 388.647 54.3525 388.647 99.7394H432.647ZM470.84 61.5813C491.946 61.5813 509.034 78.6775 509.034 99.7394H553.034C553.034 54.3525 516.222 17.5813 470.84 17.5813V61.5813ZM246.271 369.479C246.271 390.54 229.183 407.637 208.077 407.637V451.637C253.459 451.637 290.271 414.865 290.271 369.479H246.271ZM208.077 407.637C186.971 407.637 169.884 390.54 169.884 369.479H125.884C125.884 414.865 162.695 451.637 208.077 451.637V407.637ZM169.884 369.479C169.884 348.417 186.971 331.32 208.077 331.32V287.32C162.695 287.32 125.884 324.092 125.884 369.479H169.884ZM208.077 331.32C229.183 331.32 246.271 348.417 246.271 369.479H290.271C290.271 324.092 253.459 287.32 208.077 287.32V331.32ZM328.178 389.532C328.178 398.002 321.305 404.891 312.798 404.891V448.891C345.581 448.891 372.178 422.327 372.178 389.532H328.178ZM312.798 404.891C304.291 404.891 297.418 398.002 297.418 389.532H253.418C253.418 422.327 280.015 448.891 312.798 448.891V404.891ZM297.418 389.532C297.418 381.062 304.291 374.174 312.798 374.174V330.174C280.015 330.174 253.418 356.737 253.418 389.532H297.418ZM312.798 374.174C321.305 374.174 328.178 381.062 328.178 389.532H372.178C372.178 356.737 345.581 330.174 312.798 330.174V374.174ZM473.302 369.759C473.302 378.229 466.428 385.118 457.921 385.118V429.118C490.704 429.118 517.302 402.554 517.302 369.759H473.302ZM457.921 385.118C449.415 385.118 442.541 378.229 442.541 369.759H398.541C398.541 402.554 425.138 429.118 457.921 429.118V385.118ZM442.541 369.759C442.541 361.289 449.415 354.401 457.921 354.401V310.401C425.139 310.401 398.541 336.964 398.541 369.759H442.541ZM457.921 354.401C466.428 354.401 473.302 361.289 473.302 369.759H517.302C517.302 336.964 490.704 310.401 457.921 310.401V354.401ZM669 429.642C669 438.112 662.126 445 653.62 445V489C686.402 489 713 462.437 713 429.642H669ZM653.62 445C645.113 445 638.239 438.112 638.239 429.642H594.239C594.239 462.437 620.837 489 653.62 489V445ZM638.239 429.642C638.239 421.172 645.113 414.283 653.62 414.283V370.283C620.837 370.283 594.239 396.847 594.239 429.642H638.239ZM653.62 414.283C662.126 414.283 669 421.172 669 429.642H713C713 396.847 686.402 370.283 653.62 370.283V414.283ZM274.307 288.448C274.307 296.008 268.171 302.158 260.576 302.158V346.158C292.447 346.158 318.307 320.333 318.307 288.448H274.307ZM260.576 302.158C252.98 302.158 246.844 296.008 246.844 288.448H202.844C202.844 320.333 228.704 346.158 260.576 346.158V302.158ZM246.844 288.448C246.844 280.888 252.98 274.738 260.576 274.738V230.738C228.704 230.738 202.844 256.563 202.844 288.448H246.844ZM260.576 274.738C268.171 274.738 274.307 280.888 274.307 288.448H318.307C318.307 256.563 292.447 230.738 260.576 230.738V274.738ZM135.504 356.296C135.504 359.152 133.184 361.49 130.294 361.49V405.49C157.46 405.49 179.504 383.477 179.504 356.296H135.504ZM130.294 361.49C127.404 361.49 125.083 359.152 125.083 356.296H81.0828C81.0828 383.477 103.127 405.49 130.294 405.49V361.49ZM125.083 356.296C125.083 353.439 127.404 351.101 130.294 351.101V307.101C103.127 307.101 81.0828 329.114 81.0828 356.296H125.083ZM130.294 351.101C133.184 351.101 135.504 353.439 135.504 356.296H179.504C179.504 329.114 157.46 307.101 130.294 307.101V351.101ZM303.442 214.281C303.442 213.041 304.443 212.059 305.652 212.059V256.059C328.72 256.059 347.442 237.366 347.442 214.281H303.442ZM305.652 212.059C306.86 212.059 307.862 213.041 307.862 214.281H263.862C263.862 237.366 282.584 256.059 305.652 256.059V212.059ZM307.862 214.281C307.862 215.52 306.86 216.503 305.652 216.503V172.503C282.584 172.503 263.862 191.195 263.862 214.281H307.862ZM305.652 216.503C304.443 216.503 303.442 215.52 303.442 214.281H347.442C347.442 191.195 328.72 172.503 305.652 172.503V216.503ZM395.244 159.893C395.244 158.653 396.246 157.671 397.454 157.671V201.671C420.522 201.671 439.244 182.978 439.244 159.893H395.244ZM397.454 157.671C398.663 157.671 399.665 158.653 399.665 159.893H355.665C355.665 182.978 374.387 201.671 397.454 201.671V157.671ZM399.665 159.893C399.665 161.132 398.663 162.115 397.454 162.115V118.115C374.387 118.115 355.665 136.807 355.665 159.893H399.665ZM397.454 162.115C396.246 162.115 395.244 161.132 395.244 159.893H439.244C439.244 136.807 420.522 118.115 397.454 118.115V162.115ZM461.208 289.553C461.208 288.313 462.21 287.331 463.419 287.331V331.331C486.486 331.331 505.208 312.638 505.208 289.553H461.208ZM463.419 287.331C464.627 287.331 465.629 288.313 465.629 289.553H421.629C421.629 312.638 440.351 331.331 463.419 331.331V287.331ZM465.629 289.553C465.629 290.792 464.627 291.775 463.419 291.775V247.775C440.351 247.775 421.629 266.467 421.629 289.553H465.629ZM463.419 291.775C462.21 291.775 461.208 290.792 461.208 289.553H505.208C505.208 266.467 486.486 247.775 463.419 247.775V291.775ZM330.377 324.16C330.377 322.921 331.379 321.938 332.588 321.938V365.938C355.655 365.938 374.377 347.246 374.377 324.16H330.377ZM332.588 321.938C333.796 321.938 334.798 322.921 334.798 324.16H290.798C290.798 347.246 309.52 365.938 332.588 365.938V321.938ZM334.798 324.16C334.798 325.399 333.796 326.382 332.588 326.382V282.382C309.52 282.382 290.798 301.074 290.798 324.16H334.798ZM332.588 326.382C331.379 326.382 330.377 325.399 330.377 324.16H374.377C374.377 301.074 355.655 282.382 332.588 282.382V326.382ZM395.244 369.208C395.244 367.968 396.246 366.986 397.454 366.986V410.986C420.522 410.986 439.244 392.293 439.244 369.208H395.244ZM397.454 366.986C398.663 366.986 399.665 367.968 399.665 369.208H355.665C355.665 392.293 374.387 410.986 397.454 410.986V366.986ZM399.665 369.208C399.665 370.447 398.663 371.43 397.454 371.43V327.43C374.387 327.43 355.665 346.122 355.665 369.208H399.665ZM397.454 371.43C396.246 371.43 395.244 370.447 395.244 369.208H439.244C439.244 346.122 420.522 327.43 397.454 327.43V371.43ZM128.083 406.025C128.083 404.786 129.085 403.803 130.294 403.803V447.803C153.361 447.803 172.083 429.111 172.083 406.025H128.083ZM130.294 403.803C131.502 403.803 132.504 404.786 132.504 406.025H88.5039C88.5039 429.111 107.226 447.803 130.294 447.803V403.803ZM132.504 406.025C132.504 407.265 131.502 408.247 130.294 408.247V364.247C107.226 364.247 88.5039 382.94 88.5039 406.025H132.504ZM130.294 408.247C129.085 408.247 128.083 407.265 128.083 406.025H172.083C172.083 382.94 153.361 364.247 130.294 364.247V408.247ZM128.083 309.323C128.083 308.083 129.085 307.101 130.294 307.101V351.101C153.361 351.101 172.083 332.408 172.083 309.323H128.083ZM130.294 307.101C131.502 307.101 132.504 308.083 132.504 309.323H88.5039C88.5039 332.408 107.226 351.101 130.294 351.101V307.101ZM132.504 309.323C132.504 310.562 131.502 311.545 130.294 311.545V267.545C107.226 267.545 88.5039 286.237 88.5039 309.323H132.504ZM130.294 311.545C129.085 311.545 128.083 310.562 128.083 309.323H172.083C172.083 286.237 153.361 267.545 130.294 267.545V311.545ZM542.566 397.216C542.566 395.977 543.568 394.994 544.776 394.994V438.994C567.844 438.994 586.566 420.302 586.566 397.216H542.566ZM544.776 394.994C545.985 394.994 546.986 395.977 546.986 397.216H502.986C502.986 420.302 521.709 438.994 544.776 438.994V394.994ZM546.986 397.216C546.986 398.455 545.985 399.438 544.776 399.438V355.438C521.708 355.438 502.986 374.13 502.986 397.216H546.986ZM544.776 399.438C543.568 399.438 542.566 398.455 542.566 397.216H586.566C586.566 374.13 567.844 355.438 544.776 355.438V399.438ZM590.94 421.934C590.94 416.751 595.142 412.57 600.297 412.57V456.57C619.418 456.57 634.94 441.075 634.94 421.934H590.94ZM600.297 412.57C605.452 412.57 609.654 416.751 609.654 421.934H565.654C565.654 441.075 581.176 456.57 600.297 456.57V412.57ZM609.654 421.934C609.654 427.118 605.452 431.298 600.297 431.298V387.298C581.176 387.298 565.654 402.793 565.654 421.934H609.654ZM600.297 431.298C595.142 431.298 590.94 427.118 590.94 421.934H634.94C634.94 402.793 619.418 387.298 600.297 387.298V431.298ZM368.307 406.003C368.307 400.819 372.508 396.639 377.663 396.639V440.639C396.784 440.639 412.307 425.144 412.307 406.003H368.307ZM377.663 396.639C382.819 396.639 387.02 400.819 387.02 406.003H343.02C343.02 425.144 358.543 440.639 377.663 440.639V396.639ZM387.02 406.003C387.02 411.187 382.819 415.367 377.663 415.367V371.367C358.543 371.367 343.02 386.862 343.02 406.003H387.02ZM377.663 415.367C372.508 415.367 368.307 411.187 368.307 406.003H412.307C412.307 386.862 396.784 371.367 377.663 371.367V415.367ZM81.3575 401.638C81.3575 396.455 85.5588 392.274 90.7141 392.274V436.274C109.835 436.274 125.357 420.779 125.357 401.638H81.3575ZM90.7141 392.274C95.8694 392.274 100.071 396.455 100.071 401.638H56.0707C56.0707 420.779 71.5933 436.274 90.7141 436.274V392.274ZM100.071 401.638C100.071 406.822 95.8694 411.002 90.7141 411.002V367.002C71.5934 367.002 56.0707 382.497 56.0707 401.638H100.071ZM90.7141 411.002C85.5588 411.002 81.3575 406.822 81.3575 401.638H125.357C125.357 382.497 109.835 367.002 90.7141 367.002V411.002ZM484.846 194.507C484.846 189.323 489.047 185.143 494.202 185.143V229.143C513.323 229.143 528.846 213.648 528.846 194.507H484.846ZM494.202 185.143C499.358 185.143 503.559 189.323 503.559 194.507H459.559C459.559 213.648 475.082 229.143 494.202 229.143V185.143ZM503.559 194.507C503.559 199.691 499.358 203.871 494.202 203.871V159.871C475.082 159.871 459.559 175.366 459.559 194.507H503.559ZM494.202 203.871C489.047 203.871 484.846 199.691 484.846 194.507H528.846C528.846 175.366 513.323 159.871 494.202 159.871V203.871ZM406.236 34.6359C406.236 29.4521 410.438 25.2719 415.593 25.2719V69.2719C434.714 69.2719 450.236 53.7771 450.236 34.6359H406.236ZM415.593 25.2719C420.748 25.2719 424.95 29.4521 424.95 34.6359H380.95C380.95 53.777 396.472 69.2719 415.593 69.2719V25.2719ZM424.95 34.6359C424.95 39.8198 420.748 44 415.593 44V0C396.472 0 380.95 15.4949 380.95 34.6359H424.95ZM415.593 44C410.438 44 406.236 39.8198 406.236 34.6359H450.236C450.236 15.4948 434.714 0 415.593 0V44ZM659.655 369.758C659.655 368.518 660.657 367.536 661.865 367.536V411.536C684.933 411.536 703.655 392.843 703.655 369.758H659.655ZM661.865 367.536C663.074 367.536 664.076 368.518 664.076 369.758H620.076C620.076 392.843 638.798 411.536 661.865 411.536V367.536ZM664.076 369.758C664.076 370.997 663.074 371.98 661.865 371.98V327.98C638.798 327.98 620.076 346.672 620.076 369.758H664.076ZM661.865 371.98C660.657 371.98 659.655 370.997 659.655 369.758H703.655C703.655 346.672 684.933 327.98 661.865 327.98V371.98ZM580.496 149.456C580.496 157.015 574.36 163.166 566.765 163.166V207.166C598.636 207.166 624.496 181.34 624.496 149.456H580.496ZM566.765 163.166C559.169 163.166 553.033 157.015 553.033 149.456H509.033C509.033 181.34 534.893 207.166 566.765 207.166V163.166ZM553.033 149.456C553.033 141.896 559.169 135.745 566.765 135.745V91.7452C534.893 91.7452 509.033 117.571 509.033 149.456H553.033ZM566.765 135.745C574.36 135.745 580.496 141.896 580.496 149.456H624.496C624.496 117.571 598.636 91.7452 566.765 91.7452V135.745ZM257.265 90.6678C257.265 98.2276 251.13 104.378 243.534 104.378V148.378C275.406 148.378 301.265 122.553 301.265 90.6678H257.265ZM243.534 104.378C235.938 104.378 229.803 98.2276 229.803 90.6678H185.803C185.803 122.553 211.662 148.378 243.534 148.378V104.378ZM229.803 90.6678C229.803 83.1081 235.938 76.9576 243.534 76.9576V32.9576C211.662 32.9576 185.803 58.7831 185.803 90.6678H229.803ZM243.534 76.9576C251.13 76.9576 257.265 83.1081 257.265 90.6678H301.265C301.265 58.7831 275.406 32.9576 243.534 32.9576V76.9576ZM81.3579 263.726C81.3579 271.286 75.2224 277.436 67.6266 277.436V321.436C99.4985 321.436 125.358 295.611 125.358 263.726H81.3579ZM67.6266 277.436C60.0308 277.436 53.8953 271.286 53.8953 263.726H9.89531C9.89531 295.611 35.7547 321.436 67.6266 321.436V277.436ZM53.8953 263.726C53.8953 256.166 60.0308 250.016 67.6266 250.016V206.016C35.7547 206.016 9.89531 231.841 9.89531 263.726H53.8953ZM67.6266 250.016C75.2224 250.016 81.3579 256.166 81.3579 263.726H125.358C125.358 231.841 99.4985 206.016 67.6266 206.016V250.016ZM74.7609 346.679C74.7609 355.149 67.887 362.037 59.3804 362.037V406.037C92.1631 406.037 118.761 379.474 118.761 346.679H74.7609ZM59.3804 362.037C50.8738 362.037 44 355.149 44 346.679H0C0 379.474 26.5978 406.037 59.3804 406.037V362.037ZM44 346.679C44 338.209 50.8739 331.32 59.3804 331.32V287.32C26.5977 287.32 0 313.884 0 346.679H44ZM59.3804 331.32C67.887 331.32 74.7609 338.209 74.7609 346.679H118.761C118.761 313.884 92.1632 287.32 59.3804 287.32V331.32ZM441.419 197.231C441.419 192.047 445.62 187.867 450.775 187.867V231.867C469.896 231.867 485.419 216.372 485.419 197.231H441.419ZM450.775 187.867C455.931 187.867 460.132 192.047 460.132 197.231H416.132C416.132 216.372 431.655 231.867 450.775 231.867V187.867ZM460.132 197.231C460.132 202.415 455.931 206.595 450.775 206.595V162.595C431.655 162.595 416.132 178.09 416.132 197.231H460.132ZM450.775 206.595C445.62 206.595 441.419 202.415 441.419 197.231H485.419C485.419 178.09 469.896 162.595 450.775 162.595V206.595ZM472.202 236.975C472.202 235.736 473.204 234.753 474.413 234.753V278.753C497.48 278.753 516.202 260.061 516.202 236.975H472.202ZM474.413 234.753C475.621 234.753 476.623 235.736 476.623 236.975H432.623C432.623 260.061 451.345 278.753 474.413 278.753V234.753ZM476.623 236.975C476.623 238.215 475.621 239.197 474.413 239.197V195.197C451.345 195.197 432.623 213.89 432.623 236.975H476.623ZM474.413 239.197C473.204 239.197 472.202 238.215 472.202 236.975H516.202C516.202 213.89 497.48 195.197 474.413 195.197V239.197ZM343.021 171.39C343.021 170.15 344.023 169.168 345.231 169.168V213.168C368.299 213.168 387.021 194.475 387.021 171.39H343.021ZM345.231 169.168C346.44 169.168 347.442 170.15 347.442 171.39H303.442C303.442 194.475 322.164 213.168 345.231 213.168V169.168ZM347.442 171.39C347.442 172.629 346.44 173.612 345.231 173.612V129.612C322.164 129.612 303.442 148.304 303.442 171.39H347.442ZM345.231 173.612C344.023 173.612 343.021 172.629 343.021 171.39H387.021C387.021 148.304 368.299 129.612 345.231 129.612V173.612ZM285.85 159.897C285.85 158.658 286.852 157.675 288.06 157.675V201.675C311.128 201.675 329.85 182.983 329.85 159.897H285.85ZM288.06 157.675C289.269 157.675 290.271 158.658 290.271 159.897H246.271C246.271 182.983 264.993 201.675 288.06 201.675V157.675ZM290.271 159.897C290.271 161.137 289.269 162.119 288.06 162.119V118.119C264.993 118.119 246.271 136.812 246.271 159.897H290.271ZM288.06 162.119C286.852 162.119 285.85 161.137 285.85 159.897H329.85C329.85 136.812 311.128 118.119 288.06 118.119V162.119ZM603.584 389.536C603.584 384.352 607.785 380.172 612.94 380.172V424.172C632.061 424.172 647.584 408.677 647.584 389.536H603.584ZM612.94 380.172C618.096 380.172 622.297 384.352 622.297 389.536H578.297C578.297 408.677 593.82 424.172 612.94 424.172V380.172ZM622.297 389.536C622.297 394.719 618.096 398.9 612.94 398.9V354.9C593.82 354.9 578.297 370.394 578.297 389.536H622.297ZM612.94 398.9C607.785 398.9 603.584 394.72 603.584 389.536H647.584C647.584 370.394 632.061 354.9 612.94 354.9V398.9Z" fill="#7627F8" mask="url(#path-1-outside-1_101_264)"/>
</svg>
